<?xml version="1.0" encoding="UTF-8" standalone="no"?>
<svg
   xmlns:dc="http://purl.org/dc/elements/1.1/"
   xmlns:cc="http://creativecommons.org/ns#"
   xmlns:rdf="http://www.w3.org/1999/02/22-rdf-syntax-ns#"
   xmlns:svg="http://www.w3.org/2000/svg"
   xmlns="http://www.w3.org/2000/svg"
   xmlns:sodipodi="http://sodipodi.sourceforge.net/DTD/sodipodi-0.dtd"
   xmlns:inkscape="http://www.inkscape.org/namespaces/inkscape"
   version="1.1"
   width="128"
   height="128"
   viewBox="0 0 128 128"
   id="svg4"
   sodipodi:docname="Icon.svg"
   inkscape:version="0.92.2 (5c3e80d, 2017-08-06)">
  <metadata
     id="metadata10">
    <rdf:RDF>
      <cc:Work
         rdf:about="">
        <dc:format>image/svg+xml</dc:format>
        <dc:type
           rdf:resource="http://purl.org/dc/dcmitype/StillImage" />
        <dc:title></dc:title>
      </cc:Work>
    </rdf:RDF>
  </metadata>
  <defs
     id="defs8" />
  <sodipodi:namedview
     pagecolor="#ffffff"
     bordercolor="#666666"
     borderopacity="1"
     objecttolerance="10"
     gridtolerance="10"
     guidetolerance="10"
     inkscape:pageopacity="0"
     inkscape:pageshadow="2"
     inkscape:window-width="2610"
     inkscape:window-height="1449"
     id="namedview6"
     showgrid="false"
     inkscape:zoom="6.9532167"
     inkscape:cx="36.338647"
     inkscape:cy="50.022137"
     inkscape:window-x="1067"
     inkscape:window-y="420"
     inkscape:window-maximized="0"
     inkscape:current-layer="svg4" />
  <path
     d="M 64,8 C 33.06,8 8,19.137784 8,32.888864 8,46.64 33.06,57.777784 64,57.777784 c 30.94,0 56,-11.137784 56,-24.88892 C 120,19.137784 94.94,8 64,8 M 8,45.333352 V 64 c 0,13.751136 25.06,24.888864 56,24.888864 30.94,0 56,-11.137728 56,-24.888864 V 45.333352 c 0,13.75108 -25.06,24.888864 -56,24.888864 -30.94,0 -56,-11.137784 -56,-24.888864 m 0,31.11108 V 95.11108 C 8,108.86222 33.06,120 64,120 c 30.94,0 56,-11.13778 56,-24.88892 V 76.444432 c 0,13.751136 -25.06,24.888918 -56,24.888918 -30.94,0 -56,-11.137782 -56,-24.888918 z"
     id="path2"
     inkscape:connector-curvature="0"
     style="fill:#ffd905;fill-opacity:1;stroke-width:0.99999994" />
</svg>
