<?xml version="1.0" encoding="UTF-8" standalone="no"?>
<svg
   xmlns:dc="http://purl.org/dc/elements/1.1/"
   xmlns:cc="http://creativecommons.org/ns#"
   xmlns:rdf="http://www.w3.org/1999/02/22-rdf-syntax-ns#"
   xmlns:svg="http://www.w3.org/2000/svg"
   xmlns="http://www.w3.org/2000/svg"
   xmlns:sodipodi="http://sodipodi.sourceforge.net/DTD/sodipodi-0.dtd"
   xmlns:inkscape="http://www.inkscape.org/namespaces/inkscape"
   version="1.1"
   width="128"
   height="128"
   viewBox="0 0 128 128"
   id="svg4"
   sodipodi:docname="Icon.svg"
   inkscape:version="0.92.2 (5c3e80d, 2017-08-06)">
  <metadata
     id="metadata10">
    <rdf:RDF>
      <cc:Work
         rdf:about="">
        <dc:format>image/svg+xml</dc:format>
        <dc:type
           rdf:resource="http://purl.org/dc/dcmitype/StillImage" />
        <dc:title />
      </cc:Work>
    </rdf:RDF>
  </metadata>
  <defs
     id="defs8" />
  <sodipodi:namedview
     pagecolor="#ffffff"
     bordercolor="#666666"
     borderopacity="1"
     objecttolerance="10"
     gridtolerance="10"
     guidetolerance="10"
     inkscape:pageopacity="0"
     inkscape:pageshadow="2"
     inkscape:window-width="2610"
     inkscape:window-height="1449"
     id="namedview6"
     showgrid="false"
     inkscape:zoom="5.6568542"
     inkscape:cx="91.505475"
     inkscape:cy="55.248367"
     inkscape:window-x="1067"
     inkscape:window-y="420"
     inkscape:window-maximized="0"
     inkscape:current-layer="svg4" />
  <rect
     style="opacity:1;fill:#ffd905;fill-opacity:1;fill-rule:evenodd;stroke:none;stroke-width:9.99999905;stroke-linecap:round;stroke-linejoin:round;stroke-miterlimit:4;stroke-dasharray:none;stroke-opacity:1"
     id="rect812"
     width="112"
     height="112"
     x="8"
     y="8.0000019"
     rx="8"
     ry="8" />
  <path
     d="m 64,20 c -24.31,0 -44,8.751116 -44,19.555536 0,10.804464 19.69,19.55558 44,19.55558 24.31,0 44,-8.751116 44,-19.55558 C 108,28.751116 88.31,20 64,20 M 20,49.333348 V 64 c 0,10.804464 19.69,19.555536 44,19.555536 24.31,0 44,-8.751072 44,-19.555536 V 49.333348 c 0,10.80442 -19.69,19.555536 -44,19.555536 -24.31,0 -44,-8.751116 -44,-19.555536 m 0,24.44442 V 88.44442 C 20,99.248886 39.69,108 64,108 c 24.31,0 44,-8.751114 44,-19.55558 V 73.777768 c 0,10.804464 -19.69,19.555579 -44,19.555579 -24.31,0 -44,-8.751115 -44,-19.555579 z"
     id="path2"
     inkscape:connector-curvature="0"
     style="fill:#ffffff;fill-opacity:1;stroke-width:0.99999994" />
</svg>
